<?xml version="1.0" standalone="no"?>
<!DOCTYPE svg PUBLIC "-//W3C//DTD SVG 20010904//EN"
 "http://www.w3.org/TR/2001/REC-SVG-20010904/DTD/svg10.dtd">
<svg version="1.0" xmlns="http://www.w3.org/2000/svg"
 width="200.000000pt" height="47.000000pt" viewBox="0 0 200.000000 47.000000"
 preserveAspectRatio="xMidYMid meet">
<metadata>
Created by potrace 1.11, written by Peter Selinger 2001-2013
</metadata>
<g transform="translate(0.000000,47.000000) scale(0.100000,-0.100000)"
fill="#33b353" stroke="none">
<path d="M204 400 c-16 -5 -41 -21 -55 -36 -23 -25 -24 -31 -27 -195 l-3 -169
50 0 51 0 0 146 c0 81 5 154 10 165 12 22 68 27 88 7 8 -8 12 -59 12 -165 l0
-153 50 0 50 0 0 160 c0 175 -6 202 -54 227 -36 19 -130 26 -172 13z"/>
<path d="M510 242 c0 -187 5 -202 66 -228 46 -19 132 -18 174 4 61 30 71 65
68 237 l-3 150 -47 3 -48 3 0 -149 c0 -169 -5 -186 -60 -180 -52 5 -60 30 -60
191 l0 137 -45 0 -45 0 0 -168z"/>
<path d="M971 397 c-67 -24 -76 -48 -79 -233 l-3 -164 50 0 51 0 0 149 c0 168
5 181 66 181 35 0 35 1 32 38 -3 36 -4 37 -43 39 -22 1 -55 -3 -74 -10z"/>
<path d="M1167 403 c-4 -3 -7 -74 -7 -156 0 -207 15 -235 136 -245 79 -6 130
11 155 52 17 27 19 51 19 194 l0 163 -47 -3 -48 -3 -3 -149 c-1 -90 -7 -155
-14 -163 -17 -21 -75 -16 -88 6 -5 11 -10 84 -10 165 l0 146 -43 0 c-24 0 -47
-3 -50 -7z"/>
<path d="M1623 391 c-23 -11 -46 -28 -52 -39 -7 -13 -11 -87 -11 -186 l0 -166
45 0 45 0 0 138 c0 156 9 186 55 190 57 5 60 -3 63 -173 l3 -155 50 0 49 0 0
159 c0 148 -1 160 -23 192 -39 58 -143 76 -224 40z"/>
</g>
</svg>
